<svg xmlns="http://www.w3.org/2000/svg" viewBox="0 0 24 24" id="apple-pay"><path fill="#212121" d="M3.204 8.854c.45.038.9-.228 1.182-.567v-.001c.277-.346.46-.814.415-1.286-.401.019-.892.266-1.173.613-.26.296-.481.784-.424 1.241zM2.09 15.046c.498-.019.694-.327 1.294-.327.604 0 .78.327 1.305.32.544-.011.885-.494 1.218-.99a4.388 4.388 0 0 0 .544-1.138c-.011-.011-1.05-.415-1.062-1.633-.011-1.02.822-1.504.858-1.534-.469-.708-1.2-.784-1.455-.803l.002.001c-.653-.039-1.211.376-1.519.376-.315 0-.787-.358-1.305-.347C1.3 8.983.677 9.368.336 9.98c-.705 1.229-.184 3.045.498 4.046.334.494.731 1.039 1.256 1.02zm12.16-3.859h1.024c.086-.457.502-.758 1.073-.758.694 0 1.084.327 1.084.932v.411l-1.417.088c-1.316.08-2.029.628-2.029 1.579.004.959.738 1.598 1.792 1.599.713 0 1.373-.365 1.672-.947h.022v.891h1.05V11.29c0-1.069-.844-1.762-2.141-1.762-1.204 0-2.095.699-2.13 1.659zm3.185 1.786c0 .693-.582 1.187-1.35 1.187-.604 0-.99-.297-.99-.746 0-.469.371-.738 1.08-.78l1.26-.08v.419zm-8.877-5.41v7.418h1.136v-2.535h1.571c1.436 0 2.441-1.001 2.441-2.447s-.989-2.436-2.404-2.436H8.558zm3.994 2.44c0 .936-.562 1.477-1.553 1.477H9.694V8.534h1.309c.986 0 1.549.532 1.549 1.469zM15.777 15.038h-.001zM21.487 13.98 20.152 9.6h-1.185l1.92 5.401-.105.327c-.173.555-.454.773-.956.773-.09 0-.262-.011-.334-.019v.891c.068.016.35.027.436.027l-.001-.002c1.106 0 1.627-.43 2.082-1.728L24 9.6h-1.155l-1.335 4.38h-.023z"></path></svg>