<?xml version="1.0" encoding="UTF-8" standalone="no" ?>
<!DOCTYPE svg PUBLIC "-//W3C//DTD SVG 1.1//EN" "http://www.w3.org/Graphics/SVG/1.1/DTD/svg11.dtd">
<svg xmlns="http://www.w3.org/2000/svg" xmlns:xlink="http://www.w3.org/1999/xlink" version="1.1" width="1080" height="1080" viewBox="0 0 1080 1080" xml:space="preserve">
<desc>Created with Fabric.js 5.2.4</desc>
<defs>
</defs>
<g transform="matrix(1 0 0 1 540 540)" id="c4e157fe-3ebf-4765-8b96-b1c6ee737a71"  >
<rect style="stroke: none; stroke-width: 1; stroke-dasharray: none; stroke-linecap: butt; stroke-dashoffset: 0; stroke-linejoin: miter; stroke-miterlimit: 4; fill: rgb(255,255,255); fill-rule: nonzero; opacity: 1; visibility: hidden;" vector-effect="non-scaling-stroke"  x="-540" y="-540" rx="0" ry="0" width="1080" height="1080" />
</g>
<g transform="matrix(1 0 0 1 540 540)" id="14741649-d361-4750-9f63-b39d01106b37"  >
</g>
<g transform="matrix(14.71 0 0 14.71 539.66 540.28)" id="Power"  >
<path style="stroke: rgb(0,0,0); stroke-width: 0; stroke-dasharray: none; stroke-linecap: butt; stroke-dashoffset: 0; stroke-linejoin: miter; stroke-miterlimit: 4; fill: rgb(0,0,0); fill-rule: nonzero; opacity: 1;" vector-effect="non-scaling-stroke"  transform=" translate(-45.18, -52.21)" d="M 75.8 34.72 C 75.60999731838399 34.49786224901057 75.33231181821142 34.36998076866794 75.03999999999999 34.37 L 25.34 34.37 L 24.34 28.819999999999997 C 24.26442057733788 28.38751629827943 23.915590616224918 28.054910986520557 23.48 27.999999999999996 L 15.48 26.999999999999996 C 14.927715250169207 26.930964406271148 14.42403559372885 27.322715250169203 14.355 27.874999999999996 C 14.285964406271152 28.42728474983079 14.677715250169207 28.930964406271148 15.23 28.999999999999996 L 22.54 29.909999999999997 L 28.869999999999997 66.21 C 28.953627381525497 66.6950758386751 29.377820255436518 67.04715592402125 29.869999999999997 67.03999999999999 L 35.25 67.03999999999999 L 35.25 67.75999999999999 C 32.796905680112474 68.27248575561428 31.128296463997373 70.55654138959048 31.385903975477355 73.04932131609844 C 31.643511486957337 75.54210124260642 33.7439446550461 77.43665854224008 36.25 77.43665854224008 C 38.7560553449539 77.43665854224008 40.85648851304266 75.54210124260642 41.114096024522645 73.04932131609844 C 41.37170353600263 70.55654138959048 39.703094319887526 68.27248575561428 37.25 67.75999999999999 L 37.25 67 L 63.4 67 L 63.4 67.72 C 60.94690568011247 68.23248575561429 59.27829646399737 70.51654138959049 59.53590397547735 73.00932131609845 C 59.79351148695734 75.50210124260643 61.893944655046106 77.39665854224009 64.4 77.39665854224009 C 66.9060553449539 77.39665854224009 69.00648851304267 75.50210124260643 69.26409602452264 73.00932131609845 C 69.52170353600263 70.51654138959049 67.85309431988753 68.23248575561429 65.4 67.72 L 65.4 67 L 70.29 67 C 70.8422847498308 67 71.29 66.55228474983079 71.29 66 C 71.29 65.44771525016921 70.8422847498308 65 70.29 65 L 30.69 65 L 30.12 61.72 L 71.28 61.72 C 71.77864337283927 61.72563718015812 72.20523057782636 61.36303805591909 72.28 60.87 L 76 35.52 C 76.0515040742378 35.23697945505912 75.978630910182 34.94548679883593 75.8 34.72 Z M 39.12 72.52 C 39.12 74.11610292701099 37.82610292701099 75.41 36.23 75.41 C 34.633897072989 75.41 33.339999999999996 74.11610292701099 33.339999999999996 72.52 C 33.339999999999996 70.923897072989 34.633897072989 69.63 36.23 69.63 C 36.99647565563628 69.63 37.7315584639143 69.93448126865606 38.27353859762912 70.47646140237087 C 38.81551873134394 71.01844153608569 39.12 71.75352434436371 39.12 72.52 Z M 67.28 72.52 C 67.28 74.11610292701099 65.98610292701099 75.41 64.39 75.41 C 62.793897072989004 75.41 61.5 74.11610292701099 61.5 72.52 C 61.5 70.923897072989 62.793897072989004 69.63 64.39 69.63 C 65.15647565563629 69.63 65.89155846391431 69.93448126865606 66.43353859762912 70.47646140237087 C 66.97551873134394 71.01844153608569 67.28 71.75352434436371 67.28 72.52 Z M 70.42 59.739999999999995 L 29.77 59.739999999999995 L 25.69 36.37 L 73.88 36.37 Z M 46.36 57.49 C 46.03419013595187 57.48986139951755 45.72887472160233 57.33100890354058 45.54176792893753 57.06428219910352 C 45.35466113627273 56.79755549466647 45.30922460671973 56.4563999003994 45.42 56.15 L 47.620000000000005 50.15 L 44.27 47.53 C 44.0371044326874 47.340089071127274 43.901961232988235 47.05551040943562 43.901961232988235 46.755 C 43.901961232988235 46.454489590564386 44.0371044326874 46.16991092887273 44.27 45.980000000000004 L 52.68000000000001 38.88 C 53.02993696169656 38.605554524609744 53.5190690918275 38.59518200968285 53.88032599280655 38.85454593859089 C 54.2415828937856 39.113909867498926 54.38814983838697 39.58068171813106 54.24 40 L 52 46 L 55.35 48.62 C 55.582895567312605 48.809910928872725 55.71803876701177 49.09448959056438 55.71803876701177 49.394999999999996 C 55.71803876701177 49.69551040943561 55.582895567312605 49.98008907112727 55.35 50.169999999999995 L 47 57.25 C 46.821478226838025 57.40268871554204 46.594900765341464 57.48765526360325 46.36 57.49 Z M 46.47 46.7 L 49.47 49.010000000000005 C 49.80991337436496 49.27776213812088 49.939048560793616 49.733770765197065 49.79 50.14000000000001 L 48.59 53.3 L 53.190000000000005 49.419999999999995 L 50.190000000000005 47.10999999999999 C 49.87316823236928 46.835303494643505 49.76137164243726 46.39210987027016 49.91 46 L 51.059999999999995 42.85 Z" stroke-linecap="round" />
</g>
</svg>