<svg xmlns="http://www.w3.org/2000/svg" viewBox="0 0 296 314.74"><path d="M116.14 0C95.09 0 84.55 0 73.3 3.5a44.529 44.529 0 0 0-26.71 26.72C43 41.59 43 52.11 43 73.17v63.55c0 21.18 0 31.61 3.5 42.95a44.554 44.554 0 0 0 26.71 26.72c11.36 3.6 21.88 3.6 42.93 3.6h63.62c21.08 0 31.59 0 42.93-3.6a44.529 44.529 0 0 0 26.71-26.72c3.59-11.37 3.59-21.89 3.59-42.95V73.26c0-21.09 0-31.61-3.59-42.95a44.554 44.554 0 0 0-26.71-26.72c-11.44-3.6-21.85-3.6-43.03-3.6h-63.52Zm20.11 79.47c0 7.82 9.11 10.42 19.65 14.38 18.43 6.22 33.61 13.85 33.61 31.92 0 19.63-15.23 33.04-40.14 34.57l-2.26 10.52a4.253 4.253 0 0 1-4.18 3.35h-15.66c-.26 0-.52-.04-.77-.09a4.324 4.324 0 0 1-3.36-5.11l2.43-11.1c-9.4-2.4-18.05-7.14-25.13-13.77-.04-.03-.07-.07-.11-.11a4.201 4.201 0 0 1 .11-5.94l8.69-8.5a4.225 4.225 0 0 1 5.93 0c7.96 7.6 18.6 11.76 29.6 11.59 11.34 0 19.04-4.81 19.04-12.44s-7.72-9.64-22.29-15.06c-15.4-5.49-29.97-13.34-29.97-31.58 0-21.11 17.63-31.41 38.42-32.43l2.19-10.71a4.247 4.247 0 0 1 4.15-3.33h15.61c.29 0 .58.03.86.09 2.29.47 3.76 2.7 3.29 4.99l-2.43 11.98c7.95 2.6 15.31 6.73 21.68 12.15.08.07.16.15.24.22a4.155 4.155 0 0 1-.02 5.88l-8.11 8.14a4.295 4.295 0 0 1-5.9.12 43.692 43.692 0 0 0-28.17-10.35c-8.5 0-17 2.82-17 10.64Z" style="fill:#00d633;fill-rule:evenodd"/><path d="M136.25 79.47c0 7.82 9.11 10.42 19.65 14.38 18.43 6.22 33.61 13.85 33.61 31.92 0 19.63-15.23 33.04-40.14 34.57l-2.26 10.52a4.253 4.253 0 0 1-4.18 3.35h-15.66c-.26 0-.52-.04-.77-.09a4.324 4.324 0 0 1-3.36-5.11l2.43-11.1c-9.4-2.4-18.05-7.14-25.13-13.77-.04-.03-.07-.07-.11-.11a4.201 4.201 0 0 1 .11-5.94l8.69-8.5a4.225 4.225 0 0 1 5.93 0c7.96 7.6 18.6 11.76 29.6 11.59 11.34 0 19.04-4.81 19.04-12.44s-7.72-9.64-22.29-15.06c-15.4-5.49-29.97-13.34-29.97-31.58 0-21.11 17.63-31.41 38.42-32.43l2.19-10.71a4.247 4.247 0 0 1 4.15-3.33h15.61c.29 0 .58.03.86.09 2.29.47 3.76 2.7 3.29 4.99l-2.43 11.98c7.95 2.6 15.31 6.73 21.68 12.15.08.07.16.15.24.22a4.155 4.155 0 0 1-.02 5.88l-8.11 8.14a4.295 4.295 0 0 1-5.9.12 43.692 43.692 0 0 0-28.17-10.35c-8.5 0-17 2.82-17 10.64Z" style="fill-rule:evenodd;fill:#fff"/><path d="M41.92 265.11s.07-.05.11-.07c.8-.59.97-1.71.38-2.52a22.382 22.382 0 0 0-18.79-9.31C9.63 253.21 0 263.38 0 278.41s9.63 25.33 23.76 25.33c7.55.21 14.68-3.48 18.88-9.76.03-.05.06-.09.09-.14.5-.85.21-1.95-.65-2.44l-4.21-2.44c-.8-.46-1.82-.23-2.34.52a13.577 13.577 0 0 1-11.68 6.14c-8.88 0-14.44-7.16-14.44-17.2s5.46-17.07 14.35-17.07c4.62-.13 8.99 2.07 11.64 5.85.55.74 1.57.94 2.35.46l4.16-2.54Zm28.69 37.75h4.66c.98 0 1.78-.8 1.78-1.78v-23.21c0-8.41-5.97-11.88-14.44-11.88-4.75.01-9.43 1.2-13.61 3.44-.84.46-1.16 1.5-.73 2.35l1.55 3.15s.02.04.03.07c.47.86 1.54 1.17 2.4.7 2.99-1.56 6.31-2.4 9.68-2.45 2.94 0 6.43.81 6.43 3.82 0 3.4-4.44 3.75-9.63 4.51-4.85.68-12.7 2.19-12.7 10.99 0 7.07 5.12 11.1 12.49 11.1 4.99 0 8.1-1.78 10.32-4.64v2.04c0 .98.79 1.77 1.77 1.78Zm-2.24-13.69c0 5.4-3.9 7.72-8.06 7.72-3.34 0-5.66-1.5-5.66-4.71 0-3.49 2.65-4.34 5.86-4.92 3.21-.58 6.22-.99 7.86-2.22v4.13Zm14 7.3s-.02.02-.02.03c-.62.77-.51 1.89.26 2.52 4.11 3.21 9.22 4.88 14.44 4.72 9.54 0 15.55-4.64 15.55-12.16s-5.46-9.59-14.06-11.1c-4.03-.68-8.06-1.22-8.06-4.1 0-2.59 2.81-3.54 6.14-3.54 3.37-.02 6.65 1.05 9.36 3.04.76.57 1.83.45 2.44-.28l2.22-2.61s.05-.06.07-.09c.6-.77.45-1.88-.32-2.48a21.81 21.81 0 0 0-13.54-4.44c-7.78 0-14.61 3.34-14.61 11.26s6.39 9.82 13.05 10.93c6.29 1.04 8.88 1.64 8.88 4.38 0 3-2.83 4.23-6.66 4.23-3.72.09-7.35-1.09-10.32-3.33-.75-.6-1.84-.5-2.47.23l-2.35 2.8Zm37.2 6.4h5.12c.98 0 1.78-.8 1.78-1.78v-18.56c0-5.46 3.55-8.74 8.2-8.74 4.92 0 6.14 3.48 6.14 7.31v19.99c0 .98.8 1.78 1.78 1.78h5.12c.98 0 1.78-.8 1.78-1.78V279.1c0-7.71-4.43-13.1-12.02-13.1-4.31-.12-8.41 1.86-10.99 5.32V255.9c0-.98-.8-1.78-1.78-1.78h-5.12c-.98 0-1.78.8-1.78 1.78v45.2c0 .98.8 1.78 1.78 1.78ZM206.55 302.85h6.35a1.78 1.78 0 0 0 1.67-2.39l-16.71-45.21c-.27-.68-.93-1.12-1.67-1.11h-8.25c-.73 0-1.39.43-1.67 1.11l-16.77 45.2a1.784 1.784 0 0 0 1.67 2.4h6c.76 0 1.44-.49 1.69-1.21l3.69-10.87h18.61l3.71 10.87c.24.72.92 1.21 1.69 1.21Zm-7.7-19.66h-14.06l7.16-21.18 6.9 21.18ZM227.41 268.49a1.77 1.77 0 0 0-1.82-1.73h-5.07c-.98 0-1.78.8-1.78 1.78v44.42c0 .98.8 1.78 1.78 1.78h5.12c.98 0 1.78-.8 1.78-1.78v-14.78c2.54 3.58 6.72 5.63 11.1 5.46 9.84 0 16.19-8.23 16.19-18.88s-6.35-18.78-16.19-18.78c-4.37-.18-8.55 1.84-11.1 5.4V268.49Zm0 16.27c0-6.22 3.28-11.2 9.28-11.2s8.95 5 8.95 11.2-2.94 11.33-8.95 11.33-9.28-5.11-9.28-11.33ZM268.72 268.52c0-.98-.8-1.76-1.78-1.75h-5.13c-.98 0-1.76.8-1.75 1.78v44.42c0 .98.8 1.78 1.78 1.78h5.11c.98 0 1.78-.8 1.78-1.78v-14.78c2.55 3.57 6.72 5.62 11.1 5.46 9.83 0 16.18-8.23 16.18-18.88s-6.35-18.78-16.18-18.78c-4.37-.18-8.54 1.85-11.1 5.4V268.52Zm9.29 27.57c-6.07 0-9.29-5.11-9.29-11.33s3.34-11.2 9.29-11.2 8.88 5 8.88 11.2-2.88 11.33-8.88 11.33Z"/></svg>