<svg width="22px" height="22px" viewBox="0 0 22 22" enable-background="new 0 0 32 32" id="Layer_3" version="1.1" xml:space="preserve" xmlns="http://www.w3.org/2000/svg" xmlns:xlink="http://www.w3.org/1999/xlink"><g><path d="M3.744 6.875h0.761a2.372 2.372 0 0 0 2.37 -2.369v-0.761a2.372 2.372 0 0 0 -2.369 -2.369h-0.761a2.372 2.372 0 0 0 -2.369 2.369v0.761a2.372 2.372 0 0 0 2.369 2.37zM2.75 3.744c0 -0.548 0.446 -0.994 0.994 -0.994h0.761c0.549 0 0.995 0.446 0.995 0.994v0.761a0.995 0.995 0 0 1 -0.994 0.995h-0.761a0.995 0.995 0 0 1 -0.994 -0.994v-0.761z"/><path d="M3.727 16.5H5.5a0.688 0.688 0 0 1 0.688 0.688v2.75a0.688 0.688 0 0 0 0.688 0.688h2.75a0.688 0.688 0 0 0 0.688 -0.688v-2.657a4.152 4.152 0 0 0 -2.308 -3.734l-1.819 -0.909v-0.539l1.788 0.655A1.55 1.55 0 0 0 9.9 11.992a1.553 1.553 0 0 0 -0.528 -1.987L5.883 7.679a0.692 0.692 0 0 0 -0.383 -0.116H3.357A1.985 1.985 0 0 0 1.375 9.546v4.603A2.354 2.354 0 0 0 3.727 16.5zM2.75 9.546c0 -0.336 0.273 -0.607 0.607 -0.607h1.934l3.316 2.211a0.178 0.178 0 0 1 0.06 0.229 0.177 0.177 0 0 1 -0.22 0.087l-2.712 -0.994a0.684 0.684 0 0 0 -0.629 0.082 0.684 0.684 0 0 0 -0.295 0.563v1.948c0 0.262 0.147 0.497 0.38 0.615l2.198 1.099a2.781 2.781 0 0 1 1.549 2.503v1.97H7.563v-2.063A2.066 2.066 0 0 0 5.5 15.124H3.727a0.977 0.977 0 0 1 -0.977 -0.975V9.546z"/><path d="M18.256 1.375h-0.761a2.372 2.372 0 0 0 -2.37 2.369v0.761a2.372 2.372 0 0 0 2.369 2.37h0.761a2.372 2.372 0 0 0 2.37 -2.369v-0.761a2.372 2.372 0 0 0 -2.369 -2.369zm0.994 3.131a0.995 0.995 0 0 1 -0.994 0.994h-0.761a0.995 0.995 0 0 1 -0.995 -0.994v-0.761c0 -0.548 0.445 -0.994 0.994 -0.994h0.761c0.55 0 0.995 0.446 0.995 0.994v0.761z"/><path d="M18.643 7.563H16.5a0.694 0.694 0 0 0 -0.383 0.116l-3.489 2.326A1.555 1.555 0 0 0 12.1 11.991a1.547 1.547 0 0 0 1.923 0.763l1.789 -0.655v0.539l-1.817 0.909a4.149 4.149 0 0 0 -2.308 3.733v2.658a0.688 0.688 0 0 0 0.688 0.688h2.75a0.688 0.688 0 0 0 0.688 -0.688v-2.75a0.688 0.688 0 0 1 0.688 -0.688h1.773a2.354 2.354 0 0 0 2.349 -2.352V9.546a1.985 1.985 0 0 0 -1.982 -1.982zm0.607 6.587a0.977 0.977 0 0 1 -0.977 0.977H16.5a2.066 2.066 0 0 0 -2.063 2.063v2.063h-1.375V17.282c0 -1.068 0.593 -2.026 1.549 -2.504l2.198 -1.099a0.686 0.686 0 0 0 0.381 -0.615V11.116a0.684 0.684 0 0 0 -0.295 -0.563 0.684 0.684 0 0 0 -0.629 -0.082l-2.712 0.994a0.176 0.176 0 0 1 -0.219 -0.088 0.176 0.176 0 0 1 0.06 -0.227l3.315 -2.21h1.934c0.336 0 0.607 0.273 0.607 0.607v4.603z"/></g></svg>