<?xml version="1.0" encoding="UTF-8" standalone="no" ?>
<!DOCTYPE svg PUBLIC "-//W3C//DTD SVG 1.1//EN" "http://www.w3.org/Graphics/SVG/1.1/DTD/svg11.dtd">
<svg xmlns="http://www.w3.org/2000/svg" xmlns:xlink="http://www.w3.org/1999/xlink" version="1.1" width="1080" height="1080" viewBox="0 0 1080 1080" xml:space="preserve">
<desc>Created with Fabric.js 5.2.4</desc>
<defs>
</defs>
<g transform="matrix(1 0 0 1 540 540)" id="b6dd7fcd-a7fc-4e7d-aba7-7421e843f499"  >
<rect style="stroke: none; stroke-width: 1; stroke-dasharray: none; stroke-linecap: butt; stroke-dashoffset: 0; stroke-linejoin: miter; stroke-miterlimit: 4; fill: rgb(255,255,255); fill-rule: nonzero; opacity: 1; visibility: hidden;" vector-effect="non-scaling-stroke"  x="-540" y="-540" rx="0" ry="0" width="1080" height="1080" />
</g>
<g transform="matrix(1 0 0 1 540 540)" id="0a5733e4-e419-4253-8dca-46ad6bc8ebd6"  >
</g>
<g transform="matrix(1 0 0 1 540 510.17)"  >
<g style="" vector-effect="non-scaling-stroke"   >
		<g transform="matrix(1 0 0 1 0 0)"  >
<rect style="stroke: none; stroke-width: 1; stroke-dasharray: none; stroke-linecap: butt; stroke-dashoffset: 0; stroke-linejoin: miter; stroke-miterlimit: 4; fill: rgb(255,255,255); fill-rule: nonzero; opacity: 1; visibility: hidden;" vector-effect="non-scaling-stroke"  x="-540" y="-540" rx="0" ry="0" width="1080" height="1080" />
</g>
		<g transform="matrix(0.13 0 0 -0.13 0 -38.94)"  >
<path style="stroke: none; stroke-width: 1; stroke-dasharray: none; stroke-linecap: butt; stroke-dashoffset: 0; stroke-linejoin: miter; stroke-miterlimit: 4; fill: rgb(112,21,52); fill-rule: evenodd; opacity: 1;" vector-effect="non-scaling-stroke"  transform=" translate(-6014.79, -3471)" d="M 3819.29 3715.55 C 3803.0099999999998 3715.55 3786.54 3720.11 3771.91 3729.73 C 3731.94 3755.96 3720.75 3809.56 3746.99 3849.53 C 3776.68 3894.75 3810.35 3937.42 3847.3399999999997 3976.11 C 3880.3199999999997 4010.67 3935.2 4011.8700000000003 3969.6499999999996 3978.96 C 4004.2999999999997 3946.01 4005.6099999999997 3891.18 3972.5999999999995 3856.55 C 3942.9299999999994 3825.4900000000002 3915.7299999999996 3791.1000000000004 3891.8399999999992 3754.67 C 3875.209999999999 3729.32 3847.5099999999993 3715.52 3819.289999999999 3715.55 z M 8215.76 3592.52 C 8184.77 3592.52 8154.79 3609.21 8139.22 3638.55 C 7880.01 4127.02 7329.900000000001 4350.81 6912.950000000001 4137.16 C 6864.06 4112.13 6818.860000000001 4082.0899999999997 6778.6900000000005 4047.7999999999997 C 6721.13 3999.9199999999996 6672.210000000001 3944.7899999999995 6632.370000000001 3882.9599999999996 C 6611.950000000001 3851.3499999999995 6573.590000000001 3836.3899999999994 6537.06 3846.2499999999995 C 6500.68 3856.0399999999995 6474.79 3888.2399999999993 6473.080000000001 3925.9099999999994 C 6468.240000000001 4032.3099999999995 6447.710000000001 4138.459999999999 6412.290000000001 4241.209999999999 C 6390.9400000000005 4303.119999999999 6365.120000000001 4362.599999999999 6335.670000000001 4418.009999999999 C 6068.080000000001 4922.4 5499.610000000001 5153.379999999999 5068.480000000001 4932.429999999999 C 4794.910000000002 4792.5199999999995 4633.090000000001 4502.32 4635.520000000001 4156.369999999999 C 4635.690000000001 4132.229999999999 4625.730000000001 4108.939999999999 4607.990000000002 4092.469999999999 C 4590.240000000002 4076.029999999999 4566.440000000001 4067.869999999999 4542.270000000001 4069.449999999999 C 4404.980000000001 4080.369999999999 4275.350000000001 4054.819999999999 4157.270000000001 3994.369999999999 C 4114.690000000001 3972.589999999999 4062.4600000000014 3989.6099999999988 4040.8200000000015 4032.049999999999 C 4019.0200000000013 4074.6499999999987 4035.8800000000015 4126.759999999998 4078.4900000000016 4148.569999999999 C 4197.120000000002 4209.279999999999 4329.300000000002 4241.8899999999985 4465.060000000001 4244.669999999999 C 4490.090000000001 4613.669999999999 4685.800000000001 4931.129999999999 4989.600000000001 5086.619999999999 C 5504.300000000001 5350.179999999999 6176.8200000000015 5086.619999999999 6488.560000000001 4499.209999999999 C 6522.260000000001 4435.839999999999 6551.580000000002 4368.139999999999 6575.930000000001 4297.749999999999 C 6594.010000000001 4245.279999999999 6608.740000000002 4191.949999999999 6620.080000000001 4138.279999999999 C 6635.210000000001 4152.809999999999 6650.900000000001 4166.859999999999 6667.100000000001 4180.269999999999 C 6716.800000000001 4222.609999999999 6773.240000000002 4260.1799999999985 6834.100000000001 4291.3499999999985 C 7334.770000000001 4547.609999999999 7988.930000000001 4291.169999999998 8292.11 3719.6899999999987 C 8314.54 3677.529999999999 8298.51 3625.0599999999986 8256.25 3602.5599999999986 C 8243.37 3595.6999999999985 8229.42 3592.4999999999986 8215.76 3592.5199999999986 z M 8338.27 3246.91 C 8297.58 3246.91 8261.28 3275.72 8253.310000000001 3317.19 C 8245.010000000002 3360.41 8234.010000000002 3403.6 8220.500000000002 3445.59 C 8205.970000000001 3491.13 8231.070000000002 3539.88 8276.590000000002 3554.4 C 8322.250000000002 3568.96 8370.880000000003 3543.9300000000003 8385.510000000002 3498.3 C 8401.040000000003 3449.7400000000002 8413.730000000001 3399.79 8423.350000000002 3349.82 C 8432.460000000003 3302.9100000000003 8401.630000000003 3257.46 8354.690000000002 3248.46 C 8349.160000000002 3247.42 8343.690000000002 3246.91 8338.270000000002 3246.91 z M 6518.8 1753.12 C 6362.96 1753.12 6202.71 1809.83 6067.39 1917.54 C 6031.81 1890.43 5993.01 1866.1 5951.530000000001 1844.8999999999999 C 5613.130000000001 1671.4899999999998 5176.080000000001 1763.9499999999998 4873.320000000001 2068.0899999999997 C 4434.240000000001 1997.9699999999998 3971.4800000000005 2252.68 3732.9800000000005 2702.1699999999996 C 3594.4700000000003 2963.1199999999994 3551.0700000000006 3254.7899999999995 3610.8800000000006 3523.3399999999997 C 3621.1900000000005 3570.0899999999997 3667.3200000000006 3599.3399999999997 3714.1800000000007 3589.1299999999997 C 3760.8600000000006 3578.7499999999995 3790.270000000001 3532.5199999999995 3779.9000000000005 3485.8399999999997 C 3729.1000000000004 3257.2899999999995 3766.7200000000007 3007.8499999999995 3885.8600000000006 2783.3799999999997 C 4093.7500000000005 2391.7 4514.14 2165.9999999999995 4885.110000000001 2246.45 C 4915.2300000000005 2252.75 4946.68 2242.8799999999997 4967.4400000000005 2220.2799999999997 C 5218.34 1945.6699999999996 5590.43 1854.5999999999997 5872.6900000000005 1999.0899999999997 C 5924.09 2025.3999999999996 5969.72 2057.5299999999997 6008.42 2094.4799999999996 C 6042.04 2126.5299999999997 6095 2126.5299999999997 6128.43 2094.1399999999994 C 6298.89 1929.2299999999993 6533.9400000000005 1880.1499999999994 6713.070000000001 1971.8999999999994 C 6845.8 2039.7899999999995 6932.360000000001 2173.1899999999996 6950.72 2337.9299999999994 C 6953.91 2366.5999999999995 6971.13 2391.7999999999993 6996.6900000000005 2405.129999999999 C 7022.3 2418.379999999999 7052.860000000001 2418.1999999999994 7078.13 2404.5099999999993 C 7337.88 2263.499999999999 7620.62 2250.5999999999995 7853.860000000001 2370.0599999999995 C 8102.26 2497.2599999999993 8258.52 2759.9899999999993 8271.84 3072.9599999999996 C 8273.92 3120.7599999999998 8313.48 3158.1599999999994 8361.97 3155.8099999999995 C 8409.789999999999 3153.8299999999995 8446.82 3113.4799999999996 8444.82 3065.6899999999996 C 8428.9 2689.6099999999997 8237.38 2371.8699999999994 7932.719999999999 2215.8699999999994 C 7679.69 2086.5299999999993 7381.579999999999 2082.4599999999996 7100.049999999999 2201.7599999999993 C 7052.169999999999 2032.0799999999992 6943.7699999999995 1895.4599999999994 6791.94 1817.6199999999994 C 6707 1774.2499999999995 6613.669999999999 1753.2199999999993 6518.799999999999 1753.1199999999994" stroke-linecap="round" />
</g>
		<g transform="matrix(0.13 0 0 -0.13 -21.65 -9.69)"  >
<path style="stroke: none; stroke-width: 1; stroke-dasharray: none; stroke-linecap: butt; stroke-dashoffset: 0; stroke-linejoin: miter; stroke-miterlimit: 4; fill: rgb(112,21,52); fill-rule: evenodd; opacity: 1;" vector-effect="non-scaling-stroke"  transform=" translate(-5814.68, -3286.97)" d="M 6650.21 2982.74 L 4979.14 2982.74 C 4931.360000000001 2982.74 4892.56 3021.54 4892.56 3069.3399999999997 L 4892.56 3504.64 C 4892.56 3552.42 4931.34 3591.21 4979.120000000001 3591.21 L 5076.040000000001 3591.21 C 5123.810000000001 3591.21 5162.590000000001 3552.42 5162.590000000001 3504.64 C 5162.590000000001 3456.7599999999998 5123.790000000001 3418.06 5076.010000000001 3418.06 L 5065.720000000001 3418.06 L 5065.720000000001 3155.91 L 6563.630000000001 3155.91 L 6563.630000000001 3418.06 L 5424.830000000001 3418.06 C 5377.050000000001 3418.06 5338.250000000001 3456.7599999999998 5338.250000000001 3504.64 C 5338.250000000001 3552.42 5377.030000000001 3591.21 5424.800000000001 3591.21 L 6650.210000000001 3591.21 C 6698.000000000001 3591.21 6736.770000000001 3552.42 6736.770000000001 3504.64 L 6736.800000000001 3069.3399999999997 C 6736.800000000001 3021.5399999999995 6698.000000000001 2982.74 6650.210000000001 2982.74" stroke-linecap="round" />
</g>
		<g transform="matrix(0.13 0 0 -0.13 -95.05 -38.16)"  >
<path style="stroke: none; stroke-width: 1; stroke-dasharray: none; stroke-linecap: butt; stroke-dashoffset: 0; stroke-linejoin: miter; stroke-miterlimit: 4; fill: rgb(112,21,52); fill-rule: evenodd; opacity: 1;" vector-effect="non-scaling-stroke"  transform=" translate(-5243.57, -3505.94)" d="M 5253.58 3419.36 L 5233.58 3419.36 C 5185.78 3419.36 5147 3458.1200000000003 5147 3505.94 C 5147 3553.82 5185.78 3592.5 5233.58 3592.5 L 5253.58 3592.52 C 5301.46 3592.52 5340.14 3553.82 5340.14 3505.94 C 5340.17 3458.16 5301.4400000000005 3419.36 5253.58 3419.36" stroke-linecap="round" />
</g>
		<g transform="matrix(0.13 0 0 -0.13 -21.21 73.4)"  >
<path style="stroke: none; stroke-width: 1; stroke-dasharray: none; stroke-linecap: butt; stroke-dashoffset: 0; stroke-linejoin: miter; stroke-miterlimit: 4; fill: rgb(112,21,52); fill-rule: evenodd; opacity: 1;" vector-effect="non-scaling-stroke"  transform=" translate(-5814.68, -2658.97)" d="M 5196.46 2335.16 L 6432.9 2335.16 L 6432.9 2982.74 L 5196.46 2982.74 Z M 6519.48 2162.02 L 5109.87 2162.02 C 5061.99 2162.02 5023.29 2200.72 5023.29 2248.6 L 5023.29 3069.34 C 5023.29 3117.21 5061.99 3155.9100000000003 5109.85 3155.9100000000003 L 6519.4800000000005 3155.9100000000003 C 6567.360000000001 3155.9100000000003 6606.040000000001 3117.2100000000005 6606.040000000001 3069.34 L 6606.060000000001 2248.6000000000004 C 6606.060000000001 2200.7200000000003 6567.3600000000015 2162.0200000000004 6519.480000000001 2162.0200000000004" stroke-linecap="round" />
</g>
		<g transform="matrix(0.13 0 0 -0.13 2.49 43.66)"  >
<path style="stroke: none; stroke-width: 1; stroke-dasharray: none; stroke-linecap: butt; stroke-dashoffset: 0; stroke-linejoin: miter; stroke-miterlimit: 4; fill: rgb(112,21,52); fill-rule: evenodd; opacity: 1;" vector-effect="non-scaling-stroke"  transform=" translate(-5974.84, -2876.61)" d="M 5974.84 2162.02 C 5927.04 2162.02 5888.26 2200.72 5888.26 2248.6 L 5888.26 3504.64 C 5888.26 3552.42 5927.04 3591.21 5974.820000000001 3591.21 C 6022.630000000001 3591.21 6061.410000000001 3552.42 6061.410000000001 3504.64 L 6061.410000000001 2248.6 C 6061.410000000001 2200.72 6022.630000000001 2162.02 5974.840000000001 2162.02" stroke-linecap="round" />
</g>
		<g transform="matrix(0.13 0 0 -0.13 -40.16 41.26)"  >
<path style="stroke: none; stroke-width: 1; stroke-dasharray: none; stroke-linecap: butt; stroke-dashoffset: 0; stroke-linejoin: miter; stroke-miterlimit: 4; fill: rgb(112,21,52); fill-rule: evenodd; opacity: 1;" vector-effect="non-scaling-stroke"  transform=" translate(-5654.94, -2895.06)" d="M 5654.95 2198.91 C 5607.15 2198.91 5568.37 2237.6099999999997 5568.37 2285.49 L 5568.37 3504.64 C 5568.37 3552.42 5607.15 3591.21 5654.93 3591.21 C 5702.7300000000005 3591.21 5741.51 3552.42 5741.51 3504.64 L 5741.51 2285.49 C 5741.51 2237.6099999999997 5702.7300000000005 2198.91 5654.95 2198.91" stroke-linecap="round" />
</g>
		<g transform="matrix(0.13 0 0 -0.13 -20.9 -69.73)"  >
<path style="stroke: none; stroke-width: 1; stroke-dasharray: none; stroke-linecap: butt; stroke-dashoffset: 0; stroke-linejoin: miter; stroke-miterlimit: 4; fill: rgb(112,21,52); fill-rule: evenodd; opacity: 1;" vector-effect="non-scaling-stroke"  transform=" translate(-5813.17, -3736.87)" d="M 5576.87 3591.21 L 5707.42 3591.21 L 5488.71 3859.67 L 5398.25 3812.6800000000003 C 5445.62 3754.07 5492.86 3695.4500000000003 5540.06 3636.7400000000002 z M 5918.99 3591.21 L 6049.469999999999 3591.21 L 6228.249999999999 3812.58 L 6137.609999999999 3859.67 z M 6090.849999999999 3418.06 L 5535.469999999999 3418.06 C 5509.259999999999 3418.06 5484.459999999999 3429.83 5468.03 3450.25 L 5405.2699999999995 3528.11 C 5335.919999999999 3614.1600000000003 5266.57 3700.21 5196.94 3786.17 C 5180.61 3806.35 5174.099999999999 3832.85 5179.379999999999 3858.37 C 5184.679999999999 3883.85 5201.19 3905.5699999999997 5224.239999999999 3917.52 L 5471.509999999999 4045.92 C 5507.849999999999 4064.86 5552.599999999999 4055.61 5578.579999999999 4023.65 L 5813.219999999999 3735.55 L 6047.829999999999 4023.65 C 6073.689999999999 4055.51 6118.359999999999 4064.79 6154.819999999999 4045.89 L 6402.079999999999 3917.52 C 6425.129999999999 3905.57 6441.569999999999 3883.92 6446.909999999999 3858.47 C 6452.219999999999 3833.02 6445.8899999999985 3806.5099999999998 6429.519999999999 3786.35 L 6158.289999999999 3450.27 C 6141.849999999999 3429.83 6116.989999999999 3418.06 6090.849999999999 3418.06" stroke-linecap="round" />
</g>
		<g transform="matrix(0.13 0 0 -0.13 173.12 223.99)"  >
<path style="stroke: none; stroke-width: 1; stroke-dasharray: none; stroke-linecap: butt; stroke-dashoffset: 0; stroke-linejoin: miter; stroke-miterlimit: 4; fill: rgb(112,21,52); fill-rule: evenodd; opacity: 1;" vector-effect="non-scaling-stroke"  transform=" translate(-7261.89, -1532.74)" d="M 7261.68 1732.71 C 7223.27 1732.71 7184.47 1722.23 7149.820000000001 1700.23 C 7103.780000000001 1671.05 7072.280000000001 1625.95 7061.01 1573.57 C 7049.9400000000005 1521.97 7059.9800000000005 1469.08 7089.13 1424.6699999999998 C 7150.63 1331.34 7278.49 1304.6599999999999 7373.97 1365.1799999999998 C 7419.9400000000005 1394.4499999999998 7451.55 1439.3799999999999 7462.71 1491.84 C 7473.89 1543.37 7463.85 1596.33 7434.57 1640.6699999999998 C 7395.349999999999 1700.31 7329.219999999999 1732.7099999999998 7261.679999999999 1732.7099999999998 z M 7262.56 1159.8400000000001 C 7138.580000000001 1159.8400000000001 7016.860000000001 1219.65 6944.56 1329.5200000000002 C 6889.610000000001 1412.88 6870.79 1512.5400000000002 6891.67 1609.92 C 6912.71 1708.1200000000001 6971.47 1791.99 7057.03 1846.38 C 7231.67 1957.45 7466.01 1907.75 7579.24 1735.89 C 7634.24 1652.45 7653.01 1552.7900000000002 7632.05 1455.4900000000002 C 7611.03 1357.2900000000002 7552.31 1273.3200000000002 7466.79 1218.9600000000003 C 7403.59 1178.8900000000003 7332.68 1159.8100000000002 7262.56 1159.8400000000004" stroke-linecap="round" />
</g>
		<g transform="matrix(0.13 0 0 -0.13 249.66 288.59)"  >
<path style="stroke: none; stroke-width: 1; stroke-dasharray: none; stroke-linecap: butt; stroke-dashoffset: 0; stroke-linejoin: miter; stroke-miterlimit: 4; fill: rgb(112,21,52); fill-rule: evenodd; opacity: 1;" vector-effect="non-scaling-stroke"  transform=" translate(-7832.54, -1051.48)" d="M 7832.58 1118.89 C 7819.33 1118.89 7805.9 1115.25 7793.88 1107.6200000000001 C 7778.21 1097.68 7767.54 1082.6100000000001 7763.81 1065.0200000000002 C 7760.110000000001 1047.89 7763.47 1030.3100000000002 7773.18 1015.5200000000002 C 7794.39 983.3910000000002 7838.27 974.3790000000002 7871.25 995.2380000000002 C 7886.86 1005.2800000000002 7897.49 1020.3500000000001 7901.32 1037.92 C 7904.95 1055.0800000000002 7901.66 1072.65 7891.87 1087.3700000000001 C 7891.87 1087.45 7891.7699999999995 1087.45 7891.7699999999995 1087.45 C 7878.45 1107.79 7855.7699999999995 1118.89 7832.58 1118.89 z M 7833.09 811.1090000000002 C 7753.360000000001 811.1090000000002 7675.17 849.7190000000002 7628.59 920.2700000000002 C 7593.110000000001 974.1090000000002 7581.05 1038.4400000000003 7594.4800000000005 1101.3100000000002 C 7608.080000000001 1164.6000000000001 7645.92 1218.7900000000002 7700.96 1253.7600000000002 C 7813.16 1325.1000000000001 7963.72 1293.3200000000002 8036.4400000000005 1182.5900000000001 C 8071.950000000001 1128.7500000000002 8084.070000000001 1064.5000000000002 8070.55 1001.6500000000001 C 8057.05 938.2810000000001 8019.21 884.1720000000001 7964.06 849.1990000000001 C 7923.570000000001 823.4100000000001 7878.1 811.109 7833.09 811.109" stroke-linecap="round" />
</g>
</g>
</g>
</svg>